<svg xmlns="http://www.w3.org/2000/svg" xmlns:xlink="http://www.w3.org/1999/xlink" width="320" height="320" xmlns:v="https://vecta.io/nano"><g transform="matrix(.927081 0 0 .927081 11.666986 11.666985)"><path d="M114.002-9.768c-36.067 0-67.594 31.527-67.594 67.594 0 1.044.11 2.051.168 3.076-31.471 5.379-57.117 34.044-57.117 66.559 0 36.068 31.528 67.595 67.596 67.594 4.491 0 8.853-.678 13.131-1.631 1.08 1.291 2 2.188 2.658 2.908 2.208 2.416 4.833 5.107 7.918 8.154 12.346 12.193 21.564 24.844 25.564 33.111 1.789 3.698 4.022 18.663 4.316 22.953l-.211 2.289-.086 1.176-1.902 7.004-.184.66c-1.691 6.42-4.321 12.588-5.129 22.279-.419 5.027-.292 14.24 6.004 22.773 6.617 8.969 16.316 12.023 23.316 12.715.009.001.018.001.027.002a8.15 8.15 0 0 0 .764.037l-.363-.016c4.368.404 6.749.261 11.002.271l15.914-.078 16.078.078c4.405-.011 6.719.168 11.4-.293.009-.001.018-.001.027-.002 7-.692 16.7-3.746 23.316-12.715 6.296-8.534 6.423-17.747 6.004-22.773-.807-9.69-3.438-15.857-5.129-22.275l-.006-.022-.176-.635-.012-.045-1.891-6.965-.086-1.178-.211-2.287c.294-4.284 2.528-19.255 4.318-22.955 4.002-8.272 13.216-20.919 25.561-33.111 3.085-3.047 5.71-5.739 7.918-8.154.655-.716 1.562-1.595 2.625-2.863 4.371.99 8.827 1.691 13.41 1.691 36.068.002 67.598-31.526 67.598-67.594 0-32.572-25.739-61.29-57.287-66.594.053-.969.158-1.919.158-2.906-.002-36.065-31.527-67.59-67.592-67.592-17.414-.001-33.583 7.58-45.787 19.229-12.23-11.786-28.498-19.471-46.031-19.471z" fill="#fff"/><g transform="matrix(.949809 0 0 .949809 515.36371 -246.38552)"><use xlink:href="#B" opacity=".9" fill="#3983ed"/><path d="M-479.761 368.923l-4.525 10.365q-6.587-2.802-11.576 3.459-4.707 5.907-1.123 8.762 1.418 1.13 3.131.757 1.706-.444 5.936-4.541 6.334-6.091 10.12-8.418 3.786-2.327 8.088-1.989 4.333.298 8.429 3.562 6.143 4.895 6.268 12.656.156 7.722-6.527 16.109-12.112 15.2-26.24 8.771l6.419-11.045q6.328 3.047 12.384-4.553 2.322-2.914 2.898-5.738.537-2.856-1.235-4.268-2.757-2.196-6.814 1.845-11.098 10.858-17.253 12.198-6.163 1.27-11.754-3.186-5.671-4.518-5.858-11.878-.187-7.36 6.151-15.314 5.021-6.301 10.514-8.104 5.493-1.804 12.567.55z" fill="#fff"/><path d="M-379.316 320.299c0 11.472-4.557 22.473-12.669 30.585s-19.113 12.669-30.585 12.669c-23.888 0-43.254-19.365-43.254-43.254s19.365-43.254 43.254-43.254c11.472 0 22.473 4.557 30.585 12.669s12.669 19.113 12.669 30.585" opacity=".9" fill="#3983ed"/><path d="M-413.591 290.082l-39.295 23.893 6.39 10.272 13.418-8.158 20.587 33.94 12.352-7.493-20.594-33.953 13.534-8.229z" opacity=".9" fill="#fff"/><path d="M-282.647 320.554c0 23.888-19.365 43.254-43.254 43.254-11.472 0-22.473-4.557-30.585-12.669s-12.669-19.113-12.669-30.585 4.557-22.473 12.669-30.585 19.113-12.669 30.585-12.669c23.888 0 43.254 19.365 43.254 43.254" opacity=".9" fill="#3983ed"/><path d="M-299.645 318.007l-20.931-14.587-6.274 9.003 16.462 11.472-5.759 8.263-16.462-11.472-6.677 9.581 20.931 14.587-6.05 8.681-31.38-21.869 30.586-43.888 31.38 21.869z" fill="#fff"/><use xlink:href="#B" x="216.772" y="0.111" opacity=".9" fill="#3983ed"/><path d="M-286.783 406.473l21.338-34.283-29.041 25.516-6.144-6.993 35.616-31.293 11.417 12.994-15.838 24.966 27.095-12.155 11.44 13.02-35.616 31.293-7.382-8.402 29.041-25.516-36.904 16.566z" fill="#fff"/><g fill="#3983ed"><path d="M-423.418 433.185c-1.428-2.195-1.601-4.082-.692-7.538.42-1.595.797-2.395 2.45-5.191 2.708-4.581 5.898-8.271 11.689-13.524 1.357-1.231 2.452-2.3 2.432-2.376s-1.166-1.199-2.547-2.497c-7.966-7.485-13.292-15.059-14.066-20-.386-2.461-.146-4.088.858-5.831 1.122-1.948 2.495-2.959 5.112-3.765 5.274-1.625 13.882-.679 24.06 2.644 1.601.523 3.043.923 3.205.889.176-.037.595-1.361 1.047-3.313 1.708-7.371 3.583-12.432 6.33-17.093 2.814-4.773 4.832-6.569 8.139-7.246 2.609-.533 5.206.385 7.527 2.661 1.636 1.604 4.145 5.673 5.555 9.008.792 1.873 1.938 5.526 2.998 9.556l1.791 6.568c.042.024 2.348-.582 5.125-1.348 12.199-3.363 20.355-3.52 24.851-.48 3.159 2.137 4.084 5.402 2.817 9.938-.66 2.365-3.853 7.687-6.385 10.646-2.319 2.709-5.137 5.567-8.033 8.146-1.17 1.041-2.088 2.007-2.041 2.145s.94 1.035 1.985 1.992c13.159 12.055 17.916 22.775 12.413 27.977-4.22 3.989-14.499 3.741-28.288-.684-1.546-.496-2.857-.89-2.913-.875s-.494 1.657-.972 3.649c-1.939 8.083-3.268 11.708-6.036 16.452-2.221 3.808-3.271 5.053-5.441 6.447-4.447 2.857-9.346 1.046-13.17-4.87-2.457-3.8-4.318-8.675-6.239-16.342l-1.379-5.501-4.453 1.289c-11.799 3.416-20.256 3.697-25.131.837-1.486-.872-1.819-1.176-2.597-2.371zm49.052-10.025c1.275-.332 14.617-7.873 15.512-8.767.479-.478.764-5.755.674-12.478l-.068-5.36c-.006-.702-.095-.788-2.406-2.316-3.088-2.042-10.284-6.262-12.218-7.163l-1.498-.699-1.74.884c-2.83 1.438-8.47 4.637-11.475 6.509l-2.8 1.744-.124 2.791c-.241 5.42-.167 15.072.12 15.661.077.157 3.602 2.32 7.833 4.805 6.583 3.866 7.765 4.5 8.189 4.39z" opacity=".9"/><path d="M-442.672 431.844c-3.063-.035-5.352.838-6.325 2.72-1.164 2.251-1.023 5.883.334 8.571.722 1.43 4.674 5.754 10.711 11.717 14.721 14.539 26.076 29.444 32.423 42.563 6.419 13.265 7.213 31.726 7.421 35.92 0 0-.107 6.03-.876 9.434s-2.633 9.766-2.633 9.766c-4.256 16.177-8.372 25.016 1.218 25.963h.002c2.196.217 14.037.217 26.126.094l26.126-.094h.002c9.59-.948 5.474-9.787 1.218-25.963 0 0-1.864-6.362-2.633-9.766s-.876-9.434-.876-9.434c.208-4.194 1.003-22.655 7.421-35.92 6.348-13.119 17.702-28.024 32.423-42.563 6.038-5.963 9.99-10.287 10.711-11.717 1.357-2.688 1.498-6.32.334-8.571-.973-1.881-3.263-2.755-6.325-2.72-5.104.059-12.352 2.643-19.219 7.301-10.169 6.898-29.232 26.304-43.681 44.467-2.946 3.703-4.844 5.713-5.5 5.84-.656-.127-2.554-2.136-5.5-5.84-14.448-18.163-33.512-37.569-43.681-44.467-6.867-4.658-14.115-7.242-19.219-7.301z" opacity=".9" fill-opacity=".902"/></g></g></g><defs ><path id="B" d="M-439.274 393.614c0 23.888-19.365 43.254-43.254 43.254s-43.254-19.365-43.254-43.254 19.365-43.254 43.254-43.254 43.254 19.365 43.254 43.254"/></defs></svg>